<?xml version="1.0" encoding="UTF-8" standalone="no"?>
<svg
   xmlns:dc="http://purl.org/dc/elements/1.1/"
   xmlns:cc="http://creativecommons.org/ns#"
   xmlns:rdf="http://www.w3.org/1999/02/22-rdf-syntax-ns#"
   xmlns:svg="http://www.w3.org/2000/svg"
   xmlns="http://www.w3.org/2000/svg"
   xmlns:sodipodi="http://sodipodi.sourceforge.net/DTD/sodipodi-0.dtd"
   xmlns:inkscape="http://www.inkscape.org/namespaces/inkscape"
   width="210mm"
   height="297mm"
   viewBox="0 0 210 297"
   version="1.1"
   id="svg8"
   inkscape:version="1.0.2 (e86c8708, 2021-01-15)"
   sodipodi:docname="traktor-kontrol-x1.svg">
  <defs
     id="defs2">
    <inkscape:path-effect
       effect="fillet_chamfer"
       id="path-effect1886"
       is_visible="true"
       lpeversion="1"
       satellites_param="F,0,0,1,0,1.0583333,0,1 @ F,0,0,1,0,1.0583333,0,1 @ F,0,0,1,0,1.0583333,0,1 @ F,0,0,1,0,1.0583333,0,1"
       unit="px"
       method="auto"
       mode="F"
       radius="4"
       chamfer_steps="1"
       flexible="false"
       use_knot_distance="true"
       apply_no_radius="true"
       apply_with_radius="true"
       only_selected="false"
       hide_knots="false" />
    <inkscape:path-effect
       effect="fillet_chamfer"
       id="path-effect1863"
       is_visible="true"
       lpeversion="1"
       satellites_param="F,0,0,1,0,1.0583333,0,1 @ F,0,0,1,0,1.0583333,0,1 @ F,0,0,1,0,1.0583333,0,1 @ F,0,0,1,0,1.0583333,0,1"
       unit="px"
       method="auto"
       mode="F"
       radius="4"
       chamfer_steps="1"
       flexible="false"
       use_knot_distance="true"
       apply_no_radius="true"
       apply_with_radius="true"
       only_selected="false"
       hide_knots="false" />
    <inkscape:path-effect
       effect="fillet_chamfer"
       id="path-effect1861"
       is_visible="true"
       lpeversion="1"
       satellites_param="F,0,0,1,0,1.0583333,0,1 @ F,0,0,1,0,1.0583333,0,1 @ F,0,0,1,0,1.0583333,0,1 @ F,0,0,1,0,1.0583333,0,1"
       unit="px"
       method="auto"
       mode="F"
       radius="4"
       chamfer_steps="1"
       flexible="false"
       use_knot_distance="true"
       apply_no_radius="true"
       apply_with_radius="true"
       only_selected="false"
       hide_knots="false" />
    <inkscape:path-effect
       effect="fillet_chamfer"
       id="path-effect1859"
       is_visible="true"
       lpeversion="1"
       satellites_param="F,0,0,1,0,1.0583333,0,1 @ F,0,0,1,0,1.0583333,0,1 @ F,0,0,1,0,1.0583333,0,1 @ F,0,0,1,0,1.0583333,0,1"
       unit="px"
       method="auto"
       mode="F"
       radius="4"
       chamfer_steps="1"
       flexible="false"
       use_knot_distance="true"
       apply_no_radius="true"
       apply_with_radius="true"
       only_selected="false"
       hide_knots="false" />
    <inkscape:path-effect
       effect="fillet_chamfer"
       id="path-effect1857"
       is_visible="true"
       lpeversion="1"
       satellites_param="F,0,0,1,0,1.0583333,0,1 @ F,0,0,1,0,1.0583333,0,1 @ F,0,0,1,0,1.0583333,0,1 @ F,0,0,1,0,1.0583333,0,1"
       unit="px"
       method="auto"
       mode="F"
       radius="4"
       chamfer_steps="1"
       flexible="false"
       use_knot_distance="true"
       apply_no_radius="true"
       apply_with_radius="true"
       only_selected="false"
       hide_knots="false" />
    <inkscape:path-effect
       effect="fillet_chamfer"
       id="path-effect1855"
       is_visible="true"
       lpeversion="1"
       satellites_param="F,0,0,1,0,1.0583333,0,1 @ F,0,0,1,0,1.0583333,0,1 @ F,0,0,1,0,1.0583333,0,1 @ F,0,0,1,0,1.0583333,0,1"
       unit="px"
       method="auto"
       mode="F"
       radius="4"
       chamfer_steps="1"
       flexible="false"
       use_knot_distance="true"
       apply_no_radius="true"
       apply_with_radius="true"
       only_selected="false"
       hide_knots="false" />
    <inkscape:path-effect
       effect="fillet_chamfer"
       id="path-effect1853"
       is_visible="true"
       lpeversion="1"
       satellites_param="F,0,0,1,0,1.0583333,0,1 @ F,0,0,1,0,1.0583333,0,1 @ F,0,0,1,0,1.0583333,0,1 @ F,0,0,1,0,1.0583333,0,1"
       unit="px"
       method="auto"
       mode="F"
       radius="4"
       chamfer_steps="1"
       flexible="false"
       use_knot_distance="true"
       apply_no_radius="true"
       apply_with_radius="true"
       only_selected="false"
       hide_knots="false" />
    <inkscape:path-effect
       effect="fillet_chamfer"
       id="path-effect1851"
       is_visible="true"
       lpeversion="1"
       satellites_param="F,0,0,1,0,1.0583333,0,1 @ F,0,0,1,0,1.0583333,0,1 @ F,0,0,1,0,1.0583333,0,1 @ F,0,0,1,0,1.0583333,0,1"
       unit="px"
       method="auto"
       mode="F"
       radius="4"
       chamfer_steps="1"
       flexible="false"
       use_knot_distance="true"
       apply_no_radius="true"
       apply_with_radius="true"
       only_selected="false"
       hide_knots="false" />
    <inkscape:path-effect
       effect="fillet_chamfer"
       id="path-effect1849"
       is_visible="true"
       lpeversion="1"
       satellites_param="F,0,0,1,0,1.0583333,0,1 @ F,0,0,1,0,1.0583333,0,1 @ F,0,0,1,0,1.0583333,0,1 @ F,0,0,1,0,1.0583333,0,1"
       unit="px"
       method="auto"
       mode="F"
       radius="4"
       chamfer_steps="1"
       flexible="false"
       use_knot_distance="true"
       apply_no_radius="true"
       apply_with_radius="true"
       only_selected="false"
       hide_knots="false" />
    <inkscape:path-effect
       effect="fillet_chamfer"
       id="path-effect1847"
       is_visible="true"
       lpeversion="1"
       satellites_param="F,0,0,1,0,1.0583333,0,1 @ F,0,0,1,0,1.0583333,0,1 @ F,0,0,1,0,1.0583333,0,1 @ F,0,0,1,0,1.0583333,0,1"
       unit="px"
       method="auto"
       mode="F"
       radius="4"
       chamfer_steps="1"
       flexible="false"
       use_knot_distance="true"
       apply_no_radius="true"
       apply_with_radius="true"
       only_selected="false"
       hide_knots="false" />
    <inkscape:path-effect
       effect="fillet_chamfer"
       id="path-effect1845"
       is_visible="true"
       lpeversion="1"
       satellites_param="F,0,0,1,0,1.0583333,0,1 @ F,0,0,1,0,1.0583333,0,1 @ F,0,0,1,0,1.0583333,0,1 @ F,0,0,1,0,1.0583333,0,1"
       unit="px"
       method="auto"
       mode="F"
       radius="4"
       chamfer_steps="1"
       flexible="false"
       use_knot_distance="true"
       apply_no_radius="true"
       apply_with_radius="true"
       only_selected="false"
       hide_knots="false" />
    <inkscape:path-effect
       effect="fillet_chamfer"
       id="path-effect1843"
       is_visible="true"
       lpeversion="1"
       satellites_param="F,0,0,1,0,1.0583333,0,1 @ F,0,0,1,0,1.0583333,0,1 @ F,0,0,1,0,1.0583333,0,1 @ F,0,0,1,0,1.0583333,0,1"
       unit="px"
       method="auto"
       mode="F"
       radius="4"
       chamfer_steps="1"
       flexible="false"
       use_knot_distance="true"
       apply_no_radius="true"
       apply_with_radius="true"
       only_selected="false"
       hide_knots="false" />
    <inkscape:path-effect
       effect="fillet_chamfer"
       id="path-effect1841"
       is_visible="true"
       lpeversion="1"
       satellites_param="F,0,0,1,0,1.0583333,0,1 @ F,0,0,1,0,1.0583333,0,1 @ F,0,0,1,0,1.0583333,0,1 @ F,0,0,1,0,1.0583333,0,1"
       unit="px"
       method="auto"
       mode="F"
       radius="4"
       chamfer_steps="1"
       flexible="false"
       use_knot_distance="true"
       apply_no_radius="true"
       apply_with_radius="true"
       only_selected="false"
       hide_knots="false" />
    <inkscape:path-effect
       effect="fillet_chamfer"
       id="path-effect1839"
       is_visible="true"
       lpeversion="1"
       satellites_param="F,0,0,1,0,1.0583333,0,1 @ F,0,0,1,0,1.0583333,0,1 @ F,0,0,1,0,1.0583333,0,1 @ F,0,0,1,0,1.0583333,0,1"
       unit="px"
       method="auto"
       mode="F"
       radius="4"
       chamfer_steps="1"
       flexible="false"
       use_knot_distance="true"
       apply_no_radius="true"
       apply_with_radius="true"
       only_selected="false"
       hide_knots="false" />
    <inkscape:path-effect
       effect="fillet_chamfer"
       id="path-effect1837"
       is_visible="true"
       lpeversion="1"
       satellites_param="F,0,0,1,0,1.0583333,0,1 @ F,0,0,1,0,1.0583333,0,1 @ F,0,0,1,0,1.0583333,0,1 @ F,0,0,1,0,1.0583333,0,1"
       unit="px"
       method="auto"
       mode="F"
       radius="4"
       chamfer_steps="1"
       flexible="false"
       use_knot_distance="true"
       apply_no_radius="true"
       apply_with_radius="true"
       only_selected="false"
       hide_knots="false" />
    <inkscape:path-effect
       effect="fillet_chamfer"
       id="path-effect1835"
       is_visible="true"
       lpeversion="1"
       satellites_param="F,0,0,1,0,1.0583333,0,1 @ F,0,0,1,0,1.0583333,0,1 @ F,0,0,1,0,1.0583333,0,1 @ F,0,0,1,0,1.0583333,0,1"
       unit="px"
       method="auto"
       mode="F"
       radius="4"
       chamfer_steps="1"
       flexible="false"
       use_knot_distance="true"
       apply_no_radius="true"
       apply_with_radius="true"
       only_selected="false"
       hide_knots="false" />
    <inkscape:path-effect
       effect="fillet_chamfer"
       id="path-effect1833"
       is_visible="true"
       lpeversion="1"
       satellites_param="F,0,0,1,0,1.0583333,0,1 @ F,0,0,1,0,1.0583333,0,1 @ F,0,0,1,0,1.0583333,0,1 @ F,0,0,1,0,1.0583333,0,1"
       unit="px"
       method="auto"
       mode="F"
       radius="4"
       chamfer_steps="1"
       flexible="false"
       use_knot_distance="true"
       apply_no_radius="true"
       apply_with_radius="true"
       only_selected="false"
       hide_knots="false" />
    <inkscape:path-effect
       effect="fillet_chamfer"
       id="path-effect1831"
       is_visible="true"
       lpeversion="1"
       satellites_param="F,0,0,1,0,1.0583333,0,1 @ F,0,0,1,0,1.0583333,0,1 @ F,0,0,1,0,1.0583333,0,1 @ F,0,0,1,0,1.0583333,0,1"
       unit="px"
       method="auto"
       mode="F"
       radius="4"
       chamfer_steps="1"
       flexible="false"
       use_knot_distance="true"
       apply_no_radius="true"
       apply_with_radius="true"
       only_selected="false"
       hide_knots="false" />
    <inkscape:path-effect
       effect="fillet_chamfer"
       id="path-effect1829"
       is_visible="true"
       lpeversion="1"
       satellites_param="F,0,0,1,0,1.0583333,0,1 @ F,0,0,1,0,1.0583333,0,1 @ F,0,0,1,0,1.0583333,0,1 @ F,0,0,1,0,1.0583333,0,1"
       unit="px"
       method="auto"
       mode="F"
       radius="4"
       chamfer_steps="1"
       flexible="false"
       use_knot_distance="true"
       apply_no_radius="true"
       apply_with_radius="true"
       only_selected="false"
       hide_knots="false" />
    <inkscape:path-effect
       effect="fillet_chamfer"
       id="path-effect1827"
       is_visible="true"
       lpeversion="1"
       satellites_param="F,0,0,1,0,1.0583333,0,1 @ F,0,0,1,0,1.0583333,0,1 @ F,0,0,1,0,1.0583333,0,1 @ F,0,0,1,0,1.0583333,0,1"
       unit="px"
       method="auto"
       mode="F"
       radius="4"
       chamfer_steps="1"
       flexible="false"
       use_knot_distance="true"
       apply_no_radius="true"
       apply_with_radius="true"
       only_selected="false"
       hide_knots="false" />
    <inkscape:path-effect
       effect="fillet_chamfer"
       id="path-effect1825"
       is_visible="true"
       lpeversion="1"
       satellites_param="F,0,0,1,0,1.0583333,0,1 @ F,0,0,1,0,1.0583333,0,1 @ F,0,0,1,0,1.0583333,0,1 @ F,0,0,1,0,1.0583333,0,1"
       unit="px"
       method="auto"
       mode="F"
       radius="4"
       chamfer_steps="1"
       flexible="false"
       use_knot_distance="true"
       apply_no_radius="true"
       apply_with_radius="true"
       only_selected="false"
       hide_knots="false" />
    <inkscape:path-effect
       effect="fillet_chamfer"
       id="path-effect1823"
       is_visible="true"
       lpeversion="1"
       satellites_param="F,0,0,1,0,1.0583333,0,1 @ F,0,0,1,0,1.0583333,0,1 @ F,0,0,1,0,1.0583333,0,1 @ F,0,0,1,0,1.0583333,0,1"
       unit="px"
       method="auto"
       mode="F"
       radius="4"
       chamfer_steps="1"
       flexible="false"
       use_knot_distance="true"
       apply_no_radius="true"
       apply_with_radius="true"
       only_selected="false"
       hide_knots="false" />
    <inkscape:path-effect
       effect="fillet_chamfer"
       id="path-effect1821"
       is_visible="true"
       lpeversion="1"
       satellites_param="F,0,0,1,0,1.0583333,0,1 @ F,0,0,1,0,1.0583333,0,1 @ F,0,0,1,0,1.0583333,0,1 @ F,0,0,1,0,1.0583333,0,1"
       unit="px"
       method="auto"
       mode="F"
       radius="4"
       chamfer_steps="1"
       flexible="false"
       use_knot_distance="true"
       apply_no_radius="true"
       apply_with_radius="true"
       only_selected="false"
       hide_knots="false" />
    <inkscape:path-effect
       effect="fillet_chamfer"
       id="path-effect1819"
       is_visible="true"
       lpeversion="1"
       satellites_param="F,0,0,1,0,1.0583333,0,1 @ F,0,0,1,0,1.0583333,0,1 @ F,0,0,1,0,1.0583333,0,1 @ F,0,0,1,0,1.0583333,0,1"
       unit="px"
       method="auto"
       mode="F"
       radius="4"
       chamfer_steps="1"
       flexible="false"
       use_knot_distance="true"
       apply_no_radius="true"
       apply_with_radius="true"
       only_selected="false"
       hide_knots="false" />
    <inkscape:path-effect
       effect="fillet_chamfer"
       id="path-effect1817"
       is_visible="true"
       lpeversion="1"
       satellites_param="F,0,0,1,0,1.0583333,0,1 @ F,0,0,1,0,1.0583333,0,1 @ F,0,0,1,0,1.0583333,0,1 @ F,0,0,1,0,1.0583333,0,1"
       unit="px"
       method="auto"
       mode="F"
       radius="4"
       chamfer_steps="1"
       flexible="false"
       use_knot_distance="true"
       apply_no_radius="true"
       apply_with_radius="true"
       only_selected="false"
       hide_knots="false" />
    <inkscape:path-effect
       effect="fillet_chamfer"
       id="path-effect1815"
       is_visible="true"
       lpeversion="1"
       satellites_param="F,0,0,1,0,1.0583333,0,1 @ F,0,0,1,0,1.0583333,0,1 @ F,0,0,1,0,1.0583333,0,1 @ F,0,0,1,0,1.0583333,0,1"
       unit="px"
       method="auto"
       mode="F"
       radius="4"
       chamfer_steps="1"
       flexible="false"
       use_knot_distance="true"
       apply_no_radius="true"
       apply_with_radius="true"
       only_selected="false"
       hide_knots="false" />
    <inkscape:path-effect
       effect="fillet_chamfer"
       id="path-effect1813"
       is_visible="true"
       lpeversion="1"
       satellites_param="F,0,0,1,0,1.0583333,0,1 @ F,0,0,1,0,1.0583333,0,1 @ F,0,0,1,0,1.0583333,0,1 @ F,0,0,1,0,1.0583333,0,1"
       unit="px"
       method="auto"
       mode="F"
       radius="4"
       chamfer_steps="1"
       flexible="false"
       use_knot_distance="true"
       apply_no_radius="true"
       apply_with_radius="true"
       only_selected="false"
       hide_knots="false" />
    <inkscape:path-effect
       effect="fillet_chamfer"
       id="path-effect1811"
       is_visible="true"
       lpeversion="1"
       satellites_param="F,0,0,1,0,1.0583333,0,1 @ F,0,0,1,0,1.0583333,0,1 @ F,0,0,1,0,1.0583333,0,1 @ F,0,0,1,0,1.0583333,0,1"
       unit="px"
       method="auto"
       mode="F"
       radius="4"
       chamfer_steps="1"
       flexible="false"
       use_knot_distance="true"
       apply_no_radius="true"
       apply_with_radius="true"
       only_selected="false"
       hide_knots="false" />
    <inkscape:path-effect
       effect="fillet_chamfer"
       id="path-effect1809"
       is_visible="true"
       lpeversion="1"
       satellites_param="F,0,0,1,0,1.0583333,0,1 @ F,0,0,1,0,1.0583333,0,1 @ F,0,0,1,0,1.0583333,0,1 @ F,0,0,1,0,1.0583333,0,1"
       unit="px"
       method="auto"
       mode="F"
       radius="4"
       chamfer_steps="1"
       flexible="false"
       use_knot_distance="true"
       apply_no_radius="true"
       apply_with_radius="true"
       only_selected="false"
       hide_knots="false" />
    <inkscape:path-effect
       effect="fillet_chamfer"
       id="path-effect1807"
       is_visible="true"
       lpeversion="1"
       satellites_param="F,0,0,1,0,1.0583333,0,1 @ F,0,0,1,0,1.0583333,0,1 @ F,0,0,1,0,1.0583333,0,1 @ F,0,0,1,0,1.0583333,0,1"
       unit="px"
       method="auto"
       mode="F"
       radius="4"
       chamfer_steps="1"
       flexible="false"
       use_knot_distance="true"
       apply_no_radius="true"
       apply_with_radius="true"
       only_selected="false"
       hide_knots="false" />
    <inkscape:path-effect
       effect="fillet_chamfer"
       id="path-effect1805"
       is_visible="true"
       lpeversion="1"
       satellites_param="F,0,0,1,0,1.0583333,0,1 @ F,0,0,1,0,1.0583333,0,1 @ F,0,0,1,0,1.0583333,0,1 @ F,0,0,1,0,1.0583333,0,1"
       unit="px"
       method="auto"
       mode="F"
       radius="4"
       chamfer_steps="1"
       flexible="false"
       use_knot_distance="true"
       apply_no_radius="true"
       apply_with_radius="true"
       only_selected="false"
       hide_knots="false" />
    <inkscape:path-effect
       effect="fillet_chamfer"
       id="path-effect1803"
       is_visible="true"
       lpeversion="1"
       satellites_param="F,0,0,1,0,1.0583333,0,1 @ F,0,0,1,0,1.0583333,0,1 @ F,0,0,1,0,1.0583333,0,1 @ F,0,0,1,0,1.0583333,0,1"
       unit="px"
       method="auto"
       mode="F"
       radius="4"
       chamfer_steps="1"
       flexible="false"
       use_knot_distance="true"
       apply_no_radius="true"
       apply_with_radius="true"
       only_selected="false"
       hide_knots="false" />
    <inkscape:path-effect
       effect="fillet_chamfer"
       id="path-effect1801"
       is_visible="true"
       lpeversion="1"
       satellites_param="F,0,0,1,0,1.0583333,0,1 @ F,0,0,1,0,1.0583333,0,1 @ F,0,0,1,0,1.0583333,0,1 @ F,0,0,1,0,1.0583333,0,1"
       unit="px"
       method="auto"
       mode="F"
       radius="4"
       chamfer_steps="1"
       flexible="false"
       use_knot_distance="true"
       apply_no_radius="true"
       apply_with_radius="true"
       only_selected="false"
       hide_knots="false" />
  </defs>
  <sodipodi:namedview
     id="base"
     pagecolor="#ffffff"
     bordercolor="#666666"
     borderopacity="1.0"
     inkscape:pageopacity="0.0"
     inkscape:pageshadow="2"
     inkscape:zoom="2"
     inkscape:cx="400"
     inkscape:cy="233.72583"
     inkscape:document-units="mm"
     inkscape:current-layer="svg8"
     inkscape:document-rotation="0"
     showgrid="false"
     showguides="false"
     inkscape:window-width="2560"
     inkscape:window-height="1395"
     inkscape:window-x="0"
     inkscape:window-y="23"
     inkscape:window-maximized="0"
     inkscape:lockguides="true"
     inkscape:guide-bbox="true">
    <sodipodi:guide
       position="8,297"
       orientation="-1,0"
       id="guide1083"
       inkscape:label="gutter-left"
       inkscape:locked="false"
       inkscape:color="rgb(0,0,255)" />
    <sodipodi:guide
       position="112,297"
       orientation="-1,0"
       id="guide1085"
       inkscape:label="gutter-right"
       inkscape:locked="false"
       inkscape:color="rgb(0,0,255)" />
    <sodipodi:guide
       position="0,289"
       orientation="0,1"
       id="guide1087"
       inkscape:label="gutter-top"
       inkscape:locked="false"
       inkscape:color="rgb(0,0,255)" />
    <sodipodi:guide
       position="8.0697913,47"
       orientation="0,1"
       id="guide1089"
       inkscape:label="gutter-bottom"
       inkscape:locked="false"
       inkscape:color="rgb(0,0,255)" />
    <sodipodi:guide
       position="32,297"
       orientation="-1,0"
       id="guide1163"
       inkscape:label="internal-gutter-left"
       inkscape:locked="false"
       inkscape:color="rgb(0,0,255)" />
    <sodipodi:guide
       position="88,297"
       orientation="-1,0"
       id="guide1165"
       inkscape:label="internal-gutter-right"
       inkscape:locked="false"
       inkscape:color="rgb(0,0,255)" />
    <sodipodi:guide
       position="0,293"
       orientation="0,1"
       id="guide1167"
       inkscape:label="gutter-top-half"
       inkscape:locked="false"
       inkscape:color="rgb(0,0,255)" />
    <sodipodi:guide
       position="0,119.5"
       orientation="0,1"
       id="guide1169"
       inkscape:label="raised-area-gutter-bottom"
       inkscape:locked="false"
       inkscape:color="rgb(0,0,255)" />
    <sodipodi:guide
       position="0,188.5"
       orientation="0,1"
       id="guide1171"
       inkscape:label="raised-area-gutter-top"
       inkscape:locked="false"
       inkscape:color="rgb(0,0,255)" />
    <sodipodi:guide
       position="9.5,297"
       orientation="-1,0"
       id="guide1173"
       inkscape:label="raised-area-gutter-left"
       inkscape:locked="false"
       inkscape:color="rgb(0,0,255)" />
    <sodipodi:guide
       position="110.5,297"
       orientation="-1,0"
       id="guide1175"
       inkscape:label="raised-area-gutter-right"
       inkscape:locked="false"
       inkscape:color="rgb(0,0,255)" />
    <sodipodi:guide
       position="22.5,297"
       orientation="-1,0"
       id="guide1177"
       inkscape:label="small-button-gutter"
       inkscape:locked="false"
       inkscape:color="rgb(0,0,255)" />
    <sodipodi:guide
       position="0,138"
       orientation="0,1"
       id="guide1243"
       inkscape:label="touchstrip-gutter"
       inkscape:locked="false"
       inkscape:color="rgb(0,0,255)" />
    <sodipodi:guide
       position="9,297"
       orientation="-1,0"
       id="guide1247"
       inkscape:label="encoder-gutter"
       inkscape:locked="false"
       inkscape:color="rgb(0,0,255)" />
    <sodipodi:guide
       position="111,297"
       orientation="-1,0"
       id="guide1249"
       inkscape:label="encoder-gutter-right"
       inkscape:locked="false"
       inkscape:color="rgb(0,0,255)" />
    <sodipodi:guide
       position="87.999998,200.16251"
       orientation="0,-1"
       id="guide1353" />
  </sodipodi:namedview>
  <metadata
     id="metadata5">
    <rdf:RDF>
      <cc:Work
         rdf:about="">
        <dc:format>image/svg+xml</dc:format>
        <dc:type
           rdf:resource="http://purl.org/dc/dcmitype/StillImage" />
        <dc:title></dc:title>
      </cc:Work>
    </rdf:RDF>
  </metadata>
  <g
     id="layer2"
     inkscape:label="Objects"
     transform="translate(-2.5000003,1)">
    <rect
       style="fill:none;fill-opacity:0.975807;stroke:#000000;stroke-width:0.200146;stroke-linecap:round;stroke-linejoin:round;stroke-opacity:1;stop-color:#000000"
       id="rect837"
       width="119.79985"
       height="255.79985"
       x="2.6000733"
       y="-0.89992678"
       inkscape:label="outer" />
    <path
       style="fill:none;fill-opacity:0.975807;stroke:#000000;stroke-width:0.191033;stroke-linecap:butt;stroke-linejoin:round;stroke-opacity:1;stop-color:#000000"
       id="rect842"
       width="16.308968"
       height="8.5589666"
       x="10.550724"
       y="8.0955172"
       inkscape:label="button-regular"
       inkscape:path-effect="#path-effect1801"
       d="m 11.609057,8.0955172 h 14.192301 a 1.0583333,1.0583333 45 0 1 1.058334,1.0583333 V 15.59615 a 1.0583333,1.0583333 135 0 1 -1.058334,1.058334 H 11.609057 A 1.0583333,1.0583333 45 0 1 10.550724,15.59615 V 9.1538505 a 1.0583333,1.0583333 135 0 1 1.058333,-1.0583333 z"
       sodipodi:type="rect" />
    <path
       style="fill:none;fill-opacity:0.975807;stroke:#000000;stroke-width:0.189695;stroke-linecap:round;stroke-linejoin:round;stroke-opacity:1;stop-color:#000000"
       id="rect842-7"
       width="16.562691"
       height="8.3102884"
       x="10.550055"
       y="185.46986"
       inkscape:label="button-small"
       inkscape:path-effect="#path-effect1831"
       d="m 11.608388,185.46986 h 14.446024 a 1.0583333,1.0583333 45 0 1 1.058333,1.05834 v 6.19362 a 1.0583333,1.0583333 135 0 1 -1.058333,1.05833 H 11.608388 a 1.0583333,1.0583333 45 0 1 -1.058333,-1.05833 v -6.19362 a 1.0583333,1.0583333 135 0 1 1.058333,-1.05834 z"
       sodipodi:type="rect" />
    <path
       style="fill:none;fill-opacity:0.975807;stroke:#000000;stroke-width:0.235236;stroke-linecap:round;stroke-linejoin:round;stroke-miterlimit:4;stroke-dasharray:none;stroke-opacity:1;stop-color:#000000"
       id="rect842-7-1"
       width="16.514763"
       height="12.764765"
       x="10.572825"
       y="236.11763"
       inkscape:label="button-large"
       inkscape:path-effect="#path-effect1855"
       d="m 11.631159,236.11763 h 14.398096 a 1.0583333,1.0583333 45 0 1 1.058333,1.05833 v 10.6481 a 1.0583333,1.0583333 135 0 1 -1.058333,1.05833 H 11.631159 a 1.0583333,1.0583333 45 0 1 -1.058334,-1.05833 v -10.6481 a 1.0583333,1.0583333 135 0 1 1.058334,-1.05833 z"
       sodipodi:type="rect" />
    <circle
       style="fill:none;fill-opacity:0.975807;stroke:#000000;stroke-width:0.229;stroke-linecap:round;stroke-linejoin:round;stroke-miterlimit:4;stroke-dasharray:none;stroke-opacity:1;stop-color:#000000"
       id="path902"
       cx="62.455204"
       cy="124.1145"
       r="11"
       inkscape:label="encoder" />
    <path
       style="fill:none;fill-opacity:0.975807;stroke:#000000;stroke-width:0.215027;stroke-linecap:round;stroke-linejoin:round;stroke-miterlimit:4;stroke-dasharray:none;stroke-opacity:1;stop-color:#000000"
       id="rect904"
       width="100.28498"
       height="14.659973"
       x="12.307512"
       y="163.51997"
       inkscape:label="touchstrip"
       inkscape:path-effect="#path-effect1863"
       d="m 13.365846,163.51997 h 98.168314 a 1.0583333,1.0583333 45 0 1 1.05833,1.05834 v 12.5433 a 1.0583333,1.0583333 135 0 1 -1.05833,1.05834 H 13.365846 a 1.0583333,1.0583333 45 0 1 -1.058334,-1.05834 v -12.5433 a 1.0583333,1.0583333 135 0 1 1.058334,-1.05834 z"
       sodipodi:type="rect" />
    <ellipse
       style="fill:none;fill-opacity:0.975807;stroke:#000000;stroke-width:0.185433;stroke-linecap:round;stroke-linejoin:round;stroke-miterlimit:4;stroke-dasharray:none;stroke-opacity:1;stop-color:#000000"
       id="path902-1"
       cx="43.700001"
       cy="12.5"
       inkscape:label="knob"
       rx="8.9072828"
       ry="8.9072838" />
    <rect
       style="display:none;fill:none;fill-opacity:0.975807;stroke:#000000;stroke-width:0.228385;stroke-linecap:round;stroke-linejoin:round;stroke-miterlimit:4;stroke-dasharray:none;stroke-opacity:1;stop-color:#000000"
       id="rect944"
       width="103.77161"
       height="71.771614"
       x="10.5694"
       y="107.1142"
       inkscape:label="raised-area" />
    <path
       style="fill:none;fill-opacity:0.975807;stroke:#000000;stroke-width:0.232766;stroke-linecap:round;stroke-linejoin:round;stroke-miterlimit:4;stroke-dasharray:none;stroke-opacity:1;stop-color:#000000"
       id="rect946"
       width="15.996234"
       height="8.2672338"
       x="54.216385"
       y="143.11638"
       inkscape:label="button-shift"
       inkscape:path-effect="#path-effect1827"
       d="m 55.274718,143.11638 h 13.879568 a 1.0583333,1.0583333 45 0 1 1.058333,1.05833 v 6.15057 a 1.0583333,1.0583333 135 0 1 -1.058333,1.05833 H 55.274718 a 1.0583333,1.0583333 45 0 1 -1.058333,-1.05833 v -6.15057 a 1.0583333,1.0583333 135 0 1 1.058333,-1.05833 z"
       sodipodi:type="rect" />
    <path
       style="fill:none;fill-opacity:0.975807;stroke:#000000;stroke-width:0.229;stroke-linecap:round;stroke-linejoin:round;stroke-miterlimit:4;stroke-dasharray:none;stroke-opacity:1;stop-color:#000000"
       id="rect948"
       width="8.5"
       height="8.5"
       x="12.6145"
       y="109.2395"
       inkscape:label="button-square"
       inkscape:path-effect="#path-effect1817"
       d="m 13.672833,109.2395 6.383334,0 a 1.0583333,1.0583333 45 0 1 1.058333,1.05834 v 6.38333 a 1.0583333,1.0583333 135 0 1 -1.058333,1.05833 H 13.672833 A 1.0583333,1.0583333 45 0 1 12.6145,116.68117 v -6.38333 a 1.0583333,1.0583333 135 0 1 1.058333,-1.05834 z"
       sodipodi:type="rect" />
    <path
       style="fill:none;fill-opacity:0.975807;stroke:#000000;stroke-width:0.191033;stroke-linecap:round;stroke-linejoin:round;stroke-opacity:1;stop-color:#000000"
       id="rect842-0"
       width="16.308968"
       height="8.5589666"
       x="10.550724"
       y="35.095516"
       inkscape:label="button-regular"
       inkscape:path-effect="#path-effect1807"
       d="m 11.609057,35.095516 h 14.192301 a 1.0583333,1.0583333 45 0 1 1.058334,1.058334 v 6.4423 a 1.0583333,1.0583333 135 0 1 -1.058334,1.058333 H 11.609057 A 1.0583333,1.0583333 45 0 1 10.550724,42.59615 v -6.4423 a 1.0583333,1.0583333 135 0 1 1.058333,-1.058334 z"
       sodipodi:type="rect" />
    <path
       style="fill:none;fill-opacity:0.975807;stroke:#000000;stroke-width:0.191033;stroke-linecap:round;stroke-linejoin:round;stroke-opacity:1;stop-color:#000000"
       id="rect842-0-9"
       width="16.308968"
       height="8.5589666"
       x="10.550724"
       y="62.095516"
       inkscape:label="button-regular"
       inkscape:path-effect="#path-effect1809"
       d="m 11.609057,62.095516 h 14.192301 a 1.0583333,1.0583333 45 0 1 1.058334,1.058334 v 6.4423 a 1.0583333,1.0583333 135 0 1 -1.058334,1.058333 l -14.192301,0 A 1.0583333,1.0583333 45 0 1 10.550724,69.59615 v -6.4423 a 1.0583333,1.0583333 135 0 1 1.058333,-1.058334 z"
       sodipodi:type="rect" />
    <path
       style="fill:none;fill-opacity:0.975807;stroke:#000000;stroke-width:0.191033;stroke-linecap:round;stroke-linejoin:round;stroke-opacity:1;stop-color:#000000"
       id="rect842-0-9-8"
       width="16.308968"
       height="8.5589666"
       x="10.550724"
       y="89.095512"
       inkscape:label="button-regular"
       inkscape:path-effect="#path-effect1813"
       d="m 11.609057,89.095512 14.192301,0 a 1.0583333,1.0583333 45 0 1 1.058334,1.058334 v 6.4423 a 1.0583333,1.0583333 135 0 1 -1.058334,1.058333 l -14.192301,0 a 1.0583333,1.0583333 45 0 1 -1.058333,-1.058333 v -6.4423 a 1.0583333,1.0583333 135 0 1 1.058333,-1.058334 z"
       sodipodi:type="rect" />
    <path
       style="fill:none;fill-opacity:0.975807;stroke:#000000;stroke-width:0.191033;stroke-linecap:round;stroke-linejoin:round;stroke-opacity:1;stop-color:#000000"
       id="rect842-72"
       width="16.308968"
       height="8.5589666"
       x="97.55072"
       y="8.0955162"
       inkscape:label="button-regular"
       inkscape:path-effect="#path-effect1805"
       d="m 98.609054,8.0955162 h 14.192296 a 1.0583333,1.0583333 45 0 1 1.05834,1.0583333 V 15.59615 a 1.0583333,1.0583333 135 0 1 -1.05834,1.058333 H 98.609054 A 1.0583333,1.0583333 45 0 1 97.55072,15.59615 V 9.1538495 a 1.0583333,1.0583333 135 0 1 1.058334,-1.0583333 z"
       sodipodi:type="rect" />
    <path
       style="fill:none;fill-opacity:0.975807;stroke:#000000;stroke-width:0.191033;stroke-linecap:round;stroke-linejoin:round;stroke-opacity:1;stop-color:#000000"
       id="rect842-0-4"
       width="16.308968"
       height="8.5589666"
       x="97.55072"
       y="35.09552"
       inkscape:label="button-regular"
       inkscape:path-effect="#path-effect1803"
       d="m 98.609054,35.09552 h 14.192296 a 1.0583333,1.0583333 45 0 1 1.05834,1.058333 v 6.4423 a 1.0583333,1.0583333 135 0 1 -1.05834,1.058334 H 98.609054 A 1.0583333,1.0583333 45 0 1 97.55072,42.596153 v -6.4423 a 1.0583333,1.0583333 135 0 1 1.058334,-1.058333 z"
       sodipodi:type="rect" />
    <path
       style="fill:none;fill-opacity:0.975807;stroke:#000000;stroke-width:0.191033;stroke-linecap:round;stroke-linejoin:round;stroke-opacity:1;stop-color:#000000"
       id="rect842-0-9-1"
       width="16.308968"
       height="8.5589666"
       x="97.55072"
       y="62.09552"
       inkscape:label="button-regular"
       inkscape:path-effect="#path-effect1811"
       d="m 98.609054,62.09552 h 14.192296 a 1.0583333,1.0583333 45 0 1 1.05834,1.058333 v 6.4423 a 1.0583333,1.0583333 135 0 1 -1.05834,1.058334 H 98.609054 A 1.0583333,1.0583333 45 0 1 97.55072,69.596153 v -6.4423 a 1.0583333,1.0583333 135 0 1 1.058334,-1.058333 z"
       sodipodi:type="rect" />
    <path
       style="fill:none;fill-opacity:0.975807;stroke:#000000;stroke-width:0.191033;stroke-linecap:round;stroke-linejoin:round;stroke-opacity:1;stop-color:#000000"
       id="rect842-0-9-8-8"
       width="16.308968"
       height="8.5589666"
       x="97.55072"
       y="89.095512"
       inkscape:label="button-regular"
       inkscape:path-effect="#path-effect1815"
       d="m 98.609054,89.095512 14.192296,0 a 1.0583333,1.0583333 45 0 1 1.05834,1.058334 v 6.4423 a 1.0583333,1.0583333 135 0 1 -1.05834,1.058333 l -14.192296,0 A 1.0583333,1.0583333 45 0 1 97.55072,96.596146 v -6.4423 a 1.0583333,1.0583333 135 0 1 1.058334,-1.058334 z"
       sodipodi:type="rect" />
    <ellipse
       style="fill:none;fill-opacity:0.975807;stroke:#000000;stroke-width:0.185433;stroke-linecap:round;stroke-linejoin:round;stroke-miterlimit:4;stroke-dasharray:none;stroke-opacity:1;stop-color:#000000"
       id="path902-1-7"
       cx="81"
       cy="12.5"
       inkscape:label="knob"
       rx="8.9072828"
       ry="8.9072838" />
    <ellipse
       style="fill:none;fill-opacity:0.975807;stroke:#000000;stroke-width:0.185433;stroke-linecap:round;stroke-linejoin:round;stroke-miterlimit:4;stroke-dasharray:none;stroke-opacity:1;stop-color:#000000"
       id="path902-1-0"
       cx="43.700001"
       cy="39.5"
       inkscape:label="knob"
       rx="8.9072828"
       ry="8.9072838" />
    <ellipse
       style="fill:none;fill-opacity:0.975807;stroke:#000000;stroke-width:0.185433;stroke-linecap:round;stroke-linejoin:round;stroke-miterlimit:4;stroke-dasharray:none;stroke-opacity:1;stop-color:#000000"
       id="path902-1-7-4"
       cx="81"
       cy="39.5"
       inkscape:label="knob"
       rx="8.9072828"
       ry="8.9072838" />
    <ellipse
       style="fill:none;fill-opacity:0.975807;stroke:#000000;stroke-width:0.185433;stroke-linecap:round;stroke-linejoin:round;stroke-miterlimit:4;stroke-dasharray:none;stroke-opacity:1;stop-color:#000000"
       id="path902-1-0-8"
       cx="43.700001"
       cy="66.5"
       inkscape:label="knob"
       rx="8.9072828"
       ry="8.9072838" />
    <ellipse
       style="fill:none;fill-opacity:0.975807;stroke:#000000;stroke-width:0.185433;stroke-linecap:round;stroke-linejoin:round;stroke-miterlimit:4;stroke-dasharray:none;stroke-opacity:1;stop-color:#000000"
       id="path902-1-7-4-8"
       cx="81"
       cy="66.5"
       inkscape:label="knob"
       rx="8.9072828"
       ry="8.9072838" />
    <ellipse
       style="fill:none;fill-opacity:0.975807;stroke:#000000;stroke-width:0.185433;stroke-linecap:round;stroke-linejoin:round;stroke-miterlimit:4;stroke-dasharray:none;stroke-opacity:1;stop-color:#000000"
       id="path902-1-0-8-5"
       cx="43.700001"
       cy="93.050003"
       inkscape:label="knob"
       rx="8.9072828"
       ry="8.9072838" />
    <ellipse
       style="fill:none;fill-opacity:0.975807;stroke:#000000;stroke-width:0.185433;stroke-linecap:round;stroke-linejoin:round;stroke-miterlimit:4;stroke-dasharray:none;stroke-opacity:1;stop-color:#000000"
       id="path902-1-7-4-8-9"
       cx="81.000008"
       cy="93.050003"
       inkscape:label="knob"
       rx="8.9072828"
       ry="8.9072838" />
    <path
       style="fill:none;fill-opacity:0.975807;stroke:#000000;stroke-width:0.229;stroke-linecap:round;stroke-linejoin:round;stroke-miterlimit:4;stroke-dasharray:none;stroke-opacity:1;stop-color:#000000"
       id="rect948-2"
       width="8.5"
       height="8.5"
       x="27.1145"
       y="109.2395"
       inkscape:label="button-square"
       inkscape:path-effect="#path-effect1819"
       d="m 28.172833,109.2395 6.383334,0 a 1.0583333,1.0583333 45 0 1 1.058333,1.05834 v 6.38333 a 1.0583333,1.0583333 135 0 1 -1.058333,1.05833 H 28.172833 A 1.0583333,1.0583333 45 0 1 27.1145,116.68117 v -6.38333 a 1.0583333,1.0583333 135 0 1 1.058333,-1.05834 z"
       sodipodi:type="rect" />
    <path
       style="fill:none;fill-opacity:0.975807;stroke:#000000;stroke-width:0.229;stroke-linecap:round;stroke-linejoin:round;stroke-miterlimit:4;stroke-dasharray:none;stroke-opacity:1;stop-color:#000000"
       id="rect948-27"
       width="8.5"
       height="8.5"
       x="88.814499"
       y="109.2395"
       inkscape:label="button-square"
       inkscape:path-effect="#path-effect1821"
       d="m 89.872832,109.2395 6.383334,0 a 1.0583333,1.0583333 45 0 1 1.058333,1.05834 v 6.38333 a 1.0583333,1.0583333 135 0 1 -1.058333,1.05833 h -6.383334 a 1.0583333,1.0583333 45 0 1 -1.058333,-1.05833 v -6.38333 a 1.0583333,1.0583333 135 0 1 1.058333,-1.05834 z"
       sodipodi:type="rect" />
    <path
       style="fill:none;fill-opacity:0.975807;stroke:#000000;stroke-width:0.229;stroke-linecap:round;stroke-linejoin:round;stroke-miterlimit:4;stroke-dasharray:none;stroke-opacity:1;stop-color:#000000"
       id="rect948-2-4"
       width="8.5"
       height="8.5"
       x="103.3605"
       y="109.2395"
       inkscape:label="button-square"
       inkscape:path-effect="#path-effect1823"
       d="m 104.41883,109.2395 6.38333,0 a 1.0583333,1.0583333 45 0 1 1.05834,1.05834 v 6.38333 a 1.0583333,1.0583333 135 0 1 -1.05834,1.05833 h -6.38333 a 1.0583333,1.0583333 45 0 1 -1.05833,-1.05833 v -6.38333 a 1.0583333,1.0583333 135 0 1 1.05833,-1.05834 z"
       sodipodi:type="rect" />
    <circle
       style="fill:none;fill-opacity:0.975807;stroke:#000000;stroke-width:0.229;stroke-linecap:round;stroke-linejoin:round;stroke-miterlimit:4;stroke-dasharray:none;stroke-opacity:1;stop-color:#000000"
       id="path902-5"
       cx="23.2145"
       cy="147.16451"
       r="11"
       inkscape:label="encoder" />
    <circle
       style="fill:none;fill-opacity:0.975807;stroke:#000000;stroke-width:0.229;stroke-linecap:round;stroke-linejoin:round;stroke-miterlimit:4;stroke-dasharray:none;stroke-opacity:1;stop-color:#000000"
       id="path902-5-8"
       cx="100.9645"
       cy="147.16451"
       r="11"
       inkscape:label="encoder" />
    <path
       style="fill:none;fill-opacity:0.975807;stroke:#000000;stroke-width:0.229;stroke-linecap:round;stroke-linejoin:round;stroke-miterlimit:4;stroke-dasharray:none;stroke-opacity:1;stop-color:#000000"
       id="rect948-2-0"
       width="8.5"
       height="8.5"
       x="39.8895"
       y="143.21449"
       inkscape:label="button-square"
       inkscape:path-effect="#path-effect1825"
       d="m 40.947833,143.21449 h 6.383333 a 1.0583333,1.0583333 45 0 1 1.058334,1.05834 v 6.38333 a 1.0583333,1.0583333 135 0 1 -1.058334,1.05833 l -6.383333,0 A 1.0583333,1.0583333 45 0 1 39.8895,150.65616 v -6.38333 a 1.0583333,1.0583333 135 0 1 1.058333,-1.05834 z"
       sodipodi:type="rect" />
    <path
       style="fill:none;fill-opacity:0.975807;stroke:#000000;stroke-width:0.229;stroke-linecap:round;stroke-linejoin:round;stroke-miterlimit:4;stroke-dasharray:none;stroke-opacity:1;stop-color:#000000"
       id="rect948-2-0-5"
       width="8.5"
       height="8.5"
       x="76.639503"
       y="143.21449"
       inkscape:label="button-square"
       inkscape:path-effect="#path-effect1829"
       d="m 77.697837,143.21449 h 6.383333 a 1.0583333,1.0583333 45 0 1 1.058333,1.05834 v 6.38333 a 1.0583333,1.0583333 135 0 1 -1.058333,1.05833 l -6.383333,0 a 1.0583333,1.0583333 45 0 1 -1.058334,-1.05833 v -6.38333 a 1.0583333,1.0583333 135 0 1 1.058334,-1.05834 z"
       sodipodi:type="rect" />
    <path
       style="fill:none;fill-opacity:0.975807;stroke:#000000;stroke-width:0.189695;stroke-linecap:round;stroke-linejoin:round;stroke-opacity:1;stop-color:#000000"
       id="rect842-7-7"
       width="16.562691"
       height="8.3102884"
       x="97.547661"
       y="185.46985"
       inkscape:label="button-small"
       inkscape:path-effect="#path-effect1837"
       d="m 98.605994,185.46985 h 14.446026 a 1.0583333,1.0583333 45 0 1 1.05833,1.05833 v 6.19362 a 1.0583333,1.0583333 135 0 1 -1.05833,1.05834 H 98.605994 a 1.0583333,1.0583333 45 0 1 -1.058333,-1.05834 v -6.19362 a 1.0583333,1.0583333 135 0 1 1.058333,-1.05833 z"
       sodipodi:type="rect" />
    <path
       style="fill:none;fill-opacity:0.975807;stroke:#000000;stroke-width:0.189695;stroke-linecap:round;stroke-linejoin:round;stroke-opacity:1;stop-color:#000000"
       id="rect842-7-3"
       width="16.562691"
       height="8.3102884"
       x="10.550055"
       y="202.46986"
       inkscape:label="button-small"
       inkscape:path-effect="#path-effect1839"
       d="m 11.608388,202.46986 h 14.446024 a 1.0583333,1.0583333 45 0 1 1.058333,1.05834 v 6.19362 a 1.0583333,1.0583333 135 0 1 -1.058333,1.05833 H 11.608388 a 1.0583333,1.0583333 45 0 1 -1.058333,-1.05833 v -6.19362 a 1.0583333,1.0583333 135 0 1 1.058333,-1.05834 z"
       sodipodi:type="rect" />
    <path
       style="fill:none;fill-opacity:0.975807;stroke:#000000;stroke-width:0.189695;stroke-linecap:round;stroke-linejoin:round;stroke-opacity:1;stop-color:#000000"
       id="rect842-7-7-6"
       width="16.562691"
       height="8.3102884"
       x="97.547661"
       y="202.46985"
       inkscape:label="button-small"
       inkscape:path-effect="#path-effect1845"
       d="m 98.605994,202.46985 h 14.446026 a 1.0583333,1.0583333 45 0 1 1.05833,1.05833 v 6.19362 a 1.0583333,1.0583333 135 0 1 -1.05833,1.05834 H 98.605994 a 1.0583333,1.0583333 45 0 1 -1.058333,-1.05834 v -6.19362 a 1.0583333,1.0583333 135 0 1 1.058333,-1.05833 z"
       sodipodi:type="rect" />
    <path
       style="fill:none;fill-opacity:0.975807;stroke:#000000;stroke-width:0.189695;stroke-linecap:round;stroke-linejoin:round;stroke-opacity:1;stop-color:#000000"
       id="rect842-7-3-3"
       width="16.562691"
       height="8.3102884"
       x="10.549849"
       y="219.34486"
       inkscape:label="button-small"
       inkscape:path-effect="#path-effect1847"
       d="m 11.608182,219.34486 h 14.446024 a 1.0583333,1.0583333 45 0 1 1.058333,1.05834 v 6.19362 a 1.0583333,1.0583333 135 0 1 -1.058333,1.05833 H 11.608182 a 1.0583333,1.0583333 45 0 1 -1.058333,-1.05833 v -6.19362 a 1.0583333,1.0583333 135 0 1 1.058333,-1.05834 z"
       sodipodi:type="rect" />
    <path
       style="fill:none;fill-opacity:0.975807;stroke:#000000;stroke-width:0.189695;stroke-linecap:round;stroke-linejoin:round;stroke-opacity:1;stop-color:#000000"
       id="rect842-7-7-6-1"
       width="16.562691"
       height="8.3102884"
       x="97.547455"
       y="219.34485"
       inkscape:label="button-small"
       inkscape:path-effect="#path-effect1853"
       d="m 98.605788,219.34485 h 14.446022 a 1.0583333,1.0583333 45 0 1 1.05834,1.05833 v 6.19362 a 1.0583333,1.0583333 135 0 1 -1.05834,1.05834 H 98.605788 a 1.0583333,1.0583333 45 0 1 -1.058333,-1.05834 v -6.19362 a 1.0583333,1.0583333 135 0 1 1.058333,-1.05833 z"
       sodipodi:type="rect" />
    <path
       style="fill:none;fill-opacity:0.975807;stroke:#000000;stroke-width:0.235236;stroke-linecap:round;stroke-linejoin:round;stroke-miterlimit:4;stroke-dasharray:none;stroke-opacity:1;stop-color:#000000"
       id="rect842-7-1-7"
       width="16.514763"
       height="12.764765"
       x="97.564941"
       y="236.11763"
       inkscape:label="button-large"
       inkscape:path-effect="#path-effect1861"
       d="m 98.623275,236.11763 h 14.398095 a 1.0583333,1.0583333 45 0 1 1.05833,1.05833 l 0,10.6481 a 1.0583333,1.0583333 135 0 1 -1.05833,1.05833 H 98.623275 a 1.0583333,1.0583333 45 0 1 -1.058334,-1.05833 v -10.6481 a 1.0583333,1.0583333 135 0 1 1.058334,-1.05833 z"
       sodipodi:type="rect" />
    <path
       style="fill:none;fill-opacity:0.975807;stroke:#000000;stroke-width:0.189695;stroke-linecap:round;stroke-linejoin:round;stroke-opacity:1;stop-color:#000000"
       id="rect842-7-9"
       width="16.562691"
       height="8.3102894"
       x="35.394848"
       y="185.46985"
       inkscape:label="button-small"
       inkscape:path-effect="#path-effect1833"
       d="m 36.453181,185.46985 h 14.446024 a 1.0583333,1.0583333 45 0 1 1.058334,1.05833 l 0,6.19362 a 1.0583333,1.0583333 135 0 1 -1.058334,1.05834 H 36.453181 a 1.0583333,1.0583333 45 0 1 -1.058333,-1.05834 v -6.19362 a 1.0583333,1.0583333 135 0 1 1.058333,-1.05833 z"
       sodipodi:type="rect" />
    <path
       style="fill:none;fill-opacity:0.975807;stroke:#000000;stroke-width:0.235236;stroke-linecap:round;stroke-linejoin:round;stroke-miterlimit:4;stroke-dasharray:none;stroke-opacity:1;stop-color:#000000"
       id="rect842-7-1-3"
       width="16.514765"
       height="12.764767"
       x="35.418301"
       y="236.11761"
       inkscape:label="button-large"
       inkscape:path-effect="#path-effect1857"
       d="m 36.476634,236.11761 h 14.398098 a 1.0583333,1.0583333 45 0 1 1.058333,1.05834 l 0,10.6481 a 1.0583333,1.0583333 135 0 1 -1.058333,1.05833 H 36.476634 a 1.0583333,1.0583333 45 0 1 -1.058333,-1.05833 v -10.6481 a 1.0583333,1.0583333 135 0 1 1.058333,-1.05834 z"
       sodipodi:type="rect" />
    <path
       style="fill:none;fill-opacity:0.975807;stroke:#000000;stroke-width:0.189695;stroke-linecap:round;stroke-linejoin:round;stroke-opacity:1;stop-color:#000000"
       id="rect842-7-3-6"
       width="16.562691"
       height="8.3102894"
       x="35.394848"
       y="202.46985"
       inkscape:label="button-small"
       inkscape:path-effect="#path-effect1841"
       d="m 36.453181,202.46985 h 14.446024 a 1.0583333,1.0583333 45 0 1 1.058334,1.05833 l 0,6.19362 a 1.0583333,1.0583333 135 0 1 -1.058334,1.05834 H 36.453181 a 1.0583333,1.0583333 45 0 1 -1.058333,-1.05834 v -6.19362 a 1.0583333,1.0583333 135 0 1 1.058333,-1.05833 z"
       sodipodi:type="rect" />
    <path
       style="fill:none;fill-opacity:0.975807;stroke:#000000;stroke-width:0.189695;stroke-linecap:round;stroke-linejoin:round;stroke-opacity:1;stop-color:#000000"
       id="rect842-7-3-3-5"
       width="16.562691"
       height="8.3102894"
       x="35.395325"
       y="219.34485"
       inkscape:label="button-small"
       inkscape:path-effect="#path-effect1849"
       d="m 36.453658,219.34485 h 14.446024 a 1.0583333,1.0583333 45 0 1 1.058333,1.05833 v 6.19362 a 1.0583333,1.0583333 135 0 1 -1.058333,1.05834 H 36.453658 a 1.0583333,1.0583333 45 0 1 -1.058333,-1.05834 v -6.19362 a 1.0583333,1.0583333 135 0 1 1.058333,-1.05833 z"
       sodipodi:type="rect" />
    <path
       style="fill:none;fill-opacity:0.975807;stroke:#000000;stroke-width:0.189695;stroke-linecap:round;stroke-linejoin:round;stroke-opacity:1;stop-color:#000000"
       id="rect842-7-9-2"
       width="16.562691"
       height="8.3102894"
       x="72.595055"
       y="185.46985"
       inkscape:label="button-small"
       inkscape:path-effect="#path-effect1835"
       d="m 73.653388,185.46985 h 14.446024 a 1.0583333,1.0583333 45 0 1 1.058333,1.05833 v 6.19362 a 1.0583333,1.0583333 135 0 1 -1.058333,1.05834 H 73.653388 a 1.0583333,1.0583333 45 0 1 -1.058333,-1.05834 v -6.19362 a 1.0583333,1.0583333 135 0 1 1.058333,-1.05833 z"
       sodipodi:type="rect" />
    <path
       style="fill:none;fill-opacity:0.975807;stroke:#000000;stroke-width:0.235236;stroke-linecap:round;stroke-linejoin:round;stroke-miterlimit:4;stroke-dasharray:none;stroke-opacity:1;stop-color:#000000"
       id="rect842-7-1-3-8"
       width="16.514765"
       height="12.764767"
       x="72.619553"
       y="236.11761"
       inkscape:label="button-large"
       inkscape:path-effect="#path-effect1859"
       d="m 73.677886,236.11761 h 14.398098 a 1.0583333,1.0583333 45 0 1 1.058333,1.05834 v 10.6481 a 1.0583333,1.0583333 135 0 1 -1.058333,1.05833 H 73.677886 a 1.0583333,1.0583333 45 0 1 -1.058333,-1.05833 v -10.6481 a 1.0583333,1.0583333 135 0 1 1.058333,-1.05834 z"
       sodipodi:type="rect" />
    <path
       style="fill:none;fill-opacity:0.975807;stroke:#000000;stroke-width:0.189695;stroke-linecap:round;stroke-linejoin:round;stroke-opacity:1;stop-color:#000000"
       id="rect842-7-3-6-6"
       width="16.562691"
       height="8.3102894"
       x="72.595055"
       y="202.46985"
       inkscape:label="button-small"
       inkscape:path-effect="#path-effect1843"
       d="m 73.653388,202.46985 h 14.446024 a 1.0583333,1.0583333 45 0 1 1.058333,1.05833 v 6.19362 a 1.0583333,1.0583333 135 0 1 -1.058333,1.05834 H 73.653388 a 1.0583333,1.0583333 45 0 1 -1.058333,-1.05834 v -6.19362 a 1.0583333,1.0583333 135 0 1 1.058333,-1.05833 z"
       sodipodi:type="rect" />
    <path
       style="fill:none;fill-opacity:0.975807;stroke:#000000;stroke-width:0.189695;stroke-linecap:round;stroke-linejoin:round;stroke-opacity:1;stop-color:#000000"
       id="rect842-7-3-3-5-5"
       width="16.562691"
       height="8.3102894"
       x="72.594849"
       y="219.34485"
       inkscape:label="button-small"
       inkscape:path-effect="#path-effect1851"
       d="m 73.653182,219.34485 h 14.446024 a 1.0583333,1.0583333 45 0 1 1.058333,1.05833 v 6.19362 a 1.0583333,1.0583333 135 0 1 -1.058333,1.05834 H 73.653182 a 1.0583333,1.0583333 45 0 1 -1.058333,-1.05834 v -6.19362 a 1.0583333,1.0583333 135 0 1 1.058333,-1.05833 z"
       sodipodi:type="rect" />
  </g>
</svg>
